<?xml version="1.0" encoding="UTF-8" standalone="no"?>
<svg
   xmlns:dc="http://purl.org/dc/elements/1.1/"
   xmlns:cc="http://creativecommons.org/ns#"
   xmlns:rdf="http://www.w3.org/1999/02/22-rdf-syntax-ns#"
   xmlns:svg="http://www.w3.org/2000/svg"
   xmlns="http://www.w3.org/2000/svg"
   version="1.1"
   id="svg2"
   viewBox="0 0 355.60654 197.70518"
   width="100.36007mm"
   height="55.796795mm">
  <defs
     id="defs8" />
  <metadata
     id="metadata4">
    <rdf:RDF>
      <cc:Work
         rdf:about="">
        <dc:format>image/svg+xml</dc:format>
        <dc:type
           rdf:resource="http://purl.org/dc/dcmitype/StillImage" />
        <dc:title></dc:title>
      </cc:Work>
    </rdf:RDF>
  </metadata>
  <path
     id="path3255"
     d="m 213.25047,182.8927 c -2.69868,0.67467 -5.36834,1.47847 -8.09606,2.02401 -1.98471,0.39694 -4.04804,0 -6.07205,0 -4.72271,0 -9.44541,0 -14.16812,0 -13.49345,0 -26.98689,0 -40.48034,0 -4.04803,0 -8.09606,0 -12.1441,0 -0.67467,0 -1.54695,0.47707 -2.02401,0 -1.06675,-1.06675 -0.76878,-3.2112 -2.02402,-4.04803 -1.12272,-0.74848 -2.73898,0.32726 -4.04803,0 -3.66335,1.21993 -3.76432,-3.27879 -6.07205,-4.04803 -1.2801,-0.4267 -2.76794,0.4267 -4.04804,0 -0.90516,-0.30173 -1.17061,-1.59732 -2.02401,-2.02402 -0.60345,-0.30172 -1.38397,0.21335 -2.02402,0 -1.4312,-0.47707 -2.61684,-1.54695 -4.04803,-2.02402 -1.2801,-0.4267 -2.84115,0.60345 -4.04804,0 -0.8534,-0.4267 -1.23013,-1.49476 -2.024007,-2.02401 -10.22494,-6.81663 -0.0469,-0.0156 -6.07205,-2.02402 -2.8624,-0.95413 -5.23368,-3.0939 -8.09607,-4.04804 -0.64005,-0.21335 -1.36949,0.16364 -2.02402,0 -5.00216,-1.25054 -5.93232,-1.95415 -10.12008,-4.04803 -1.34935,-0.67467 -2.61684,-1.54695 -4.04803,-2.02402 -0.64005,-0.21335 -1.42058,0.30173 -2.02402,0 -0.8534,-0.4267 -1.17062,-1.59731 -2.02402,-2.02401 -0.60344,-0.30172 -1.34934,0 -2.02401,0 -1.34935,-0.67467 -2.7928,-1.18719 -4.04804,-2.02402 -0.79388,-0.52926 -1.17061,-1.59732 -2.02402,-2.02402 -0.60344,-0.30172 -1.42057,0.30173 -2.02401,0 -9.26313,-4.63156 8.58874,0.8389 -6.07205,-4.04803 -1.2801,-0.4267 -2.84115,0.60345 -4.04804,0 -6.71281,-6.71282 1.90827,0.95413 -4.04803,-2.02402 -0.8534,-0.4267 -1.23013,-1.49476 -2.02402,-2.02401 -1.25524,-0.83683 -2.79279,-1.18719 -4.04803,-2.02402 -2.3354,-1.55694 -3.73665,-4.51511 -6.07205,-6.07205 -1.25524,-0.83683 -2.98128,-0.95727 -4.04803,-2.02402 -0.47707,-0.47706 0.30172,-1.42057 0,-2.02401 -0.4267,-0.8534 -1.34935,-1.34935 -2.02402,-2.02402 -0.26659,-0.26659 -9.93473,-9.56404 -10.12008,-10.12008 -0.4267,-1.2801 0.4267,-2.76794 0,-4.04804 -0.30173,-0.90516 -1.49476,-1.23013 -2.02402,-2.02401 -0.83683,-1.25525 -1.5469496,-2.61684 -2.0240196,-4.04804 -0.4267,-1.2801 0.60345,-2.84114 0,-4.04803 -0.4267,-0.8534 -1.34934,-1.34935 -2.02401,-2.02402 0,-1.34934 0.4267,-2.76793 0,-4.048031 -0.30173,-0.90517 -1.59732,-1.17062 -2.02402,-2.02402 -0.67068,-1.34136 0.56546,-6.39968 0,-8.09606 -0.47707,-1.4312 -1.65812,-2.58447 -2.02402,-4.04804 -0.32726,-1.30905 0,-2.69869 0,-4.04803 0,-4.04804 0,-8.09607 0,-12.1441 0,-6.07205 0,-12.1441 0,-18.21615 0,-0.67467 -0.47706,-1.54695 0,-2.02402 1.06675,-1.06675 2.98129,-0.95727 4.04804,-2.02402 0.47706,-0.47706 -0.30173,-1.42057 0,-2.02401 1.21441,-2.42882 4.8576396,-3.64323 6.0720496,-6.07205 0.30172,-0.60345 -0.30173,-1.42057 0,-2.02402 4.21173,-8.42347 -0.13973,2.16375 4.04803,-2.02402 0.47707,-0.47706 0,-1.34934 0,-2.02401 0.67467,-0.67468 1.23013,-1.49476 2.02402,-2.02402 2.51048,-1.67366 5.58558,-2.37438 8.09606,-4.04803 0.79389,-0.52926 1.11885,-1.7223 2.02402,-2.02402 1.2801,-0.4267 2.76793,0.4267 4.04803,0 0.90517,-0.30172 1.34935,-1.34934 2.02402,-2.02402 1.34935,-0.67467 2.58446,-1.65812 4.04803,-2.02401 1.30906,-0.32727 2.69869,0 4.04804,0 0.67467,0 1.42057,0.30172 2.02401,0 0.8534,-0.4267 1.34935,-1.34935 2.02402,-2.02402 1.34935,0 2.76793,0.4267 4.04803,0 0.90517,-0.30172 1.11885,-1.72229 2.02402,-2.02402 2.5602,-0.8534 5.47796,0.65453 8.09607,0 1.46357,-0.36589 2.61684,-1.54695 4.04803,-2.02401 0.64005,-0.21335 1.38397,0.21335 2.02402,0 1.43119,-0.47707 2.58446,-1.65813 4.04803,-2.02402 2.66121,-0.6653 7.60636,0.83791 10.12009,0 0.90516,-0.30172 1.11884,-1.72229 2.02401,-2.02402 1.2801,-0.4267 2.69869,0 4.04804,0 0.67467,0 1.42057,0.30173 2.02401,0 0.8534,-0.4267 1.17062,-1.5973095 2.02402,-2.0240095 0.60344,-0.30173 1.34934,0 2.02402,0 1.34934,0 2.73897,0.32726 4.04803,0 1.46357,-0.3659 2.616837,-1.54696 4.048027,-2.02402 0.64005,-0.21335 1.34935,0 2.02402,0 2.10482,0 10.55197,0.39803 12.1441,0 1.46357,-0.36589 2.58446,-1.65813 4.04803,-2.02402 1.30906,-0.32726 2.69869,0 4.04804,0 3.37336,0 6.81223,0.66157 10.12008,0 1.47932,-0.29586 2.56872,-1.72815 4.04803,-2.02401 2.0284,-0.40568 9.50853,0 12.14411,0 6.74672,0 13.49344,0 20.24016,0 4.72271,0 9.44541,0 14.16812,0 1.34934,0 2.69869,0 4.04803,0 0.67468,0 1.42057,-0.30173 2.02402,0 2.17575,1.08787 3.81347,3.1446 6.07205,4.04803 0.24313,0.0972 7.53609,-0.0933 8.09607,0 30.18245,5.0304095 -9.89495,-0.76458 14.16811,4.0480295 1.32315,0.26463 2.69869,0 4.04804,0 4.7227,0 9.44541,0 14.16812,0 1.34934,0 2.72489,-0.26463 4.04803,0 2.09207,0.41842 3.97998,1.60561 6.07205,2.02402 2.24891,0.44978 8.4334,-0.67467 10.12008,0 1.77178,0.70871 2.34124,3.19463 4.04804,4.04803 0.58385,0.29193 10.8505,0 12.1441,0 0.67467,0 1.42057,-0.30172 2.02401,0 0.8534,0.4267 1.17062,1.59732 2.02402,2.02402 1.61921,0.80961 4.45284,-0.80961 6.07205,0 0.8534,0.4267 1.17062,1.59732 2.02402,2.02402 0.60344,0.30172 1.34934,0 2.02401,0 0.67468,0.67467 1.17062,1.59731 2.02402,2.02401 2.16338,1.08169 1.88465,-1.08169 4.04803,0 0.8534,0.4267 1.17062,1.59732 2.02402,2.02402 0.60345,0.30172 1.38397,-0.21335 2.02402,0 1.43119,0.47707 2.69869,1.34934 4.04803,2.02402 2.69869,1.34934 5.58558,2.37437 8.09607,4.04803 0.79388,0.52926 1.11885,1.72229 2.02401,2.02402 1.28011,0.4267 2.84115,-0.60345 4.04804,0 0.60344,0.30172 -0.47707,1.54695 0,2.02401 0.47706,0.47707 1.42057,-0.30172 2.02401,0 0.85341,0.4267 1.11885,1.7223 2.02402,2.02402 9.2139,0 0.11576,-0.95413 6.07205,2.02402 0.60345,0.30172 1.54695,-0.47707 2.02402,0 0.47706,0.47706 -0.30172,1.42057 0,2.02401 0.89698,1.79397 4.84372,4.22956 6.07205,6.07205 0.25134,0.37702 3.91833,7.96637 4.04803,8.09607 0.47707,0.47707 1.42057,-0.30172 2.02402,0 0.8534,0.4267 1.34934,1.34935 2.02402,2.02402 0.67467,0.67467 1.59731,1.17061 2.02401,2.02401 0.30172,0.60345 -0.21335,1.38397 0,2.02402 0.95413,2.86239 3.09391,5.23368 4.04804,8.09607 0.4267,1.2801 -0.95413,3.0939 0,4.04803 0.47706,0.47707 1.54695,-0.47706 2.02401,0 0.59887,0.59887 -0.62685,6.84237 0,8.09607 0.4267,0.8534 1.59732,1.17061 2.02402,2.02402 0.2661,0.53219 0,7.03766 0,8.09606 0,6.07205 0,12.144101 0,18.216151 0,0.5385 0.33424,5.90493 0,6.07205 -1.20689,0.60345 -2.84114,-0.60344 -4.04803,0 -1.20689,0.60345 0.95413,3.09391 0,4.04804 -0.47707,0.47706 -1.54696,-0.47707 -2.02402,0 -0.95413,0.95413 0.95413,3.0939 0,4.04803 -0.47707,0.47707 -1.54695,-0.47707 -2.02402,0 -0.47706,0.47707 0.47707,1.54695 0,2.02402 -0.47706,0.47706 -1.54695,-0.47707 -2.02401,0 -4.18777,4.18776 6.39945,-0.16371 -2.02402,4.04803 -0.60345,0.30172 -1.34935,0 -2.02402,0 -0.67467,1.34934 -0.95726,2.98128 -2.02401,4.04803 -0.95414,0.95413 -3.09391,-0.95413 -4.04804,0 -0.95413,0.95413 1.20689,3.44459 0,4.04804 -1.20689,0.60344 -2.84114,-0.60345 -4.04803,0 -0.60345,0.30172 0.30172,1.42057 0,2.02401 -0.4267,0.8534 -1.34935,1.34935 -2.02402,2.02402 -0.67467,0.67467 -1.17061,1.59732 -2.02402,2.02402 -1.20689,0.60344 -3.0939,-0.95413 -4.04803,0 -0.47706,0.47706 0.30172,1.42057 0,2.02401 -2.2376,4.47522 -1.25619,0.6281 -4.04803,2.02402 -1.7068,0.8534 -2.34123,3.19463 -4.04804,4.04803 -0.60344,0.30173 -1.42057,-0.30172 -2.02401,0 -0.8534,0.4267 -1.17062,1.59732 -2.02402,2.02402 -1.20689,0.60345 -3.0939,-0.95413 -4.04803,0 -0.47707,0.47707 0.47706,1.54695 0,2.02402 -0.95413,0.95413 -2.84115,-0.60345 -4.04804,0 -0.8534,0.4267 -1.17061,1.59731 -2.02401,2.02401 -0.60345,0.30173 -1.42057,-0.30172 -2.02402,0 -0.8534,0.4267 -1.17062,1.59732 -2.02402,2.02402 -1.20689,0.60345 -2.84114,-0.60344 -4.04803,0 -9.26313,4.63157 8.58875,-0.8389 -6.07205,4.04803 -0.64005,0.21335 -1.34934,0 -2.02402,0 -1.34934,0 -2.76793,-0.4267 -4.04803,0 -6.3176,2.10587 0.67467,1.34935 -2.02402,4.04804 -0.41378,0.41378 -5.26954,-0.40125 -6.07205,0 -0.8534,0.4267 -1.11885,1.72229 -2.02401,2.02402 -1.2801,0.4267 -2.84115,-0.60345 -4.04804,0 -0.60344,0.30172 0.47707,1.54695 0,2.02401 -0.002,0.002 -6.06287,-0.003 -6.07205,0 -0.90517,0.30172 -1.17061,1.59732 -2.02401,2.02402 -0.60345,0.30172 -1.42058,-0.30172 -2.02402,0 -0.8534,0.4267 -1.17062,1.59732 -2.02402,2.02402 -0.60344,0.30172 -1.42057,-0.30173 -2.02401,0 -0.8534,0.4267 -1.17062,1.59731 -2.02402,2.02401 -0.80251,0.40126 -5.65827,-0.41378 -6.07205,0 -0.47707,0.47707 0.60344,1.7223 0,2.02402 -1.20689,0.60344 -2.73898,-0.32727 -4.04803,0 -1.46357,0.36589 -2.61684,1.54695 -4.04804,2.02402 -0.64005,0.21335 -1.42057,-0.30173 -2.02402,0 -0.8534,0.4267 -1.17061,1.59731 -2.02401,2.02401 -1.20689,0.60345 -3.0939,-0.95413 -4.04804,0 -0.47706,0.47707 0.60345,1.7223 0,2.02402 -6.67152,3.33576 -3.72155,-6.85555 -12.1441,-4.04803 -2.86239,0.95413 -2.23769,5.68228 -4.04803,8.09606 -0.009,0.0122 -5.6126,0 -6.07205,0 -1.34934,0 -2.69869,0 -4.04803,0 -1.34935,0 -2.76794,-0.4267 -4.04804,0 -0.90516,0.30173 -1.17061,1.59732 -2.02401,2.02402 -1.27214,0.63607 -6.82393,-0.63607 -8.09607,0 -0.8534,0.4267 -1.17062,1.59732 -2.02402,2.02402 -0.53219,0.26609 -7.03766,0 -8.09606,0"
     style="fill:none;fill-rule:evenodd;stroke:#ffffff;stroke-width:5.0999999;stroke-linecap:round;stroke-linejoin:miter;stroke-miterlimit:4;stroke-dasharray:none;stroke-opacity:1" />
</svg>
